<?xml version="1.0" standalone="no"?><!DOCTYPE svg PUBLIC "-//W3C//DTD SVG 1.1//EN" "http://www.w3.org/Graphics/SVG/1.1/DTD/svg11.dtd"><svg t="1767951834057" class="icon" viewBox="0 0 1024 1024" version="1.1" xmlns="http://www.w3.org/2000/svg" p-id="5651" xmlns:xlink="http://www.w3.org/1999/xlink" width="256" height="256"><path d="M895.59 361.88c-21.68-44.77-87.92-117.09-224.18-69.13-1.7-41-17.3-86.78-57.37-135.06-38.45-37.43-84.54-51.21-134.46-44.33-49.28 6.78-138.53 47.44-135 191.84-39.51-11-87.87-10.35-146.17 12.83-47.48 25-74.82 64.58-83.71 114.18-8.78 49 2.3 146.41 140.73 187.7-22.72 34.17-37 80.38-33 143 9.11 52.88 38.3 91.11 82.73 114.89 43.85 23.48 140 43.06 222-75.83 25.48 32.16 65 60 125.8 75.54 53.11 7.68 98.49-8.27 134.84-43.17 35.88-34.46 84.19-119.81-3.53-234.57 38.46-14.29 77.18-43.28 110.72-96.3 23.71-48.15 22.57-96.23 0.6-141.59z" fill="#679EEF" p-id="5652"></path><path d="M604.29 385.34a13 13 0 0 0-18 3.91L511.55 505.6 424.39 399a13 13 0 0 0-18.31-1.84l-1.26 1a13 13 0 0 0-1.82 18.39l87.53 107.05-128.27 50a13 13 0 0 0-7.41 16.85l0.59 1.52a13 13 0 0 0 16.85 7.4l128.87-50.18 7.84 137.4a13 13 0 0 0 13.74 12.25l1.63-0.1A13 13 0 0 0 536.65 685l-7.91-138.06 133.14 35a13 13 0 0 0 15.9-9.28l0.41-1.57a13 13 0 0 0-9.28-15.9L535.16 520l74.41-115.82a13 13 0 0 0-3.91-18z" fill="#92CBFF" p-id="5653"></path><path d="M588 491.27c-4.14-8.55-16.79-22.36-42.8-13.2-0.33-7.83-3.3-16.57-11-25.79a29.58 29.58 0 0 0-25.67-8.46c-9.41 1.29-26.45 9.06-25.78 36.62-7.55-2.1-16.78-2-27.91 2.45a29.59 29.59 0 0 0-16 21.8c-1.68 9.35 0.44 27.95 26.87 35.84-4.34 6.52-7.07 15.34-6.3 27.29a29.57 29.57 0 0 0 15.79 21.94c8.38 4.48 26.73 8.22 42.39-14.48 4.86 6.14 12.41 11.46 24 14.42a29.55 29.55 0 0 0 25.75-8.24c6.85-6.58 16.07-22.87-0.68-44.78 7.35-2.73 14.74-8.26 21.14-18.39a29.54 29.54 0 0 0 0.2-27.02z" fill="#FF94A9" p-id="5654"></path><path d="M489 594a30.86 30.86 0 0 1-14.09-3.46A30.27 30.27 0 0 1 458.64 568c-0.69-10.59 1.26-19.63 5.79-27-29.61-9.39-27.17-32-26.37-36.48a30.27 30.27 0 0 1 16.45-22.42c9.85-3.93 19-4.86 27.41-2.82-0.2-31.07 22-35.73 26.55-36.35a30.39 30.39 0 0 1 26.41 8.7c6.78 8.16 10.51 16.62 11.14 25.22 29.5-9.81 40.8 9.91 42.78 14a30.28 30.28 0 0 1-0.11 27.8c-5.66 9-12.55 15.13-20.54 18.4 18.44 25 3.18 41.86-0.1 45a30.29 30.29 0 0 1-26.48 8.47c-10.29-2.62-18.28-7.27-23.84-13.84C507.89 590.47 497.27 594 489 594z m-16-114a48.15 48.15 0 0 0-17.77 3.71 28.57 28.57 0 0 0-15.45 21.13c-0.77 4.29-3.1 26.1 26.25 34.85l1.14 0.33-0.65 1c-4.77 7.16-6.83 16.17-6.15 26.76A28.52 28.52 0 0 0 475.71 589c3.84 2.06 23.84 11 41.24-14.2l0.68-1 0.73 0.92c5.34 6.75 13.27 11.49 23.55 14.12a28.51 28.51 0 0 0 24.92-8c3.14-3 17.84-19.27-0.77-43.61l-0.71-1 1.11-0.41c8.07-3 15-9.07 20.7-18a28.62 28.62 0 0 0 0.07-26.18c-1.9-3.91-12.83-22.93-41.72-12.75l-1.12 0.4v-1.18c-0.36-8.61-4-17.11-10.75-25.27a28.44 28.44 0 0 0-24.87-8.15c-4.31 0.59-25.77 5.1-25 35.74v1.18l-1.14-0.32A35.31 35.31 0 0 0 473 480z" fill="#92CBFF" p-id="5655"></path><path d="M515.21 520.5m-31.81 0a31.81 31.81 0 1 0 63.62 0 31.81 31.81 0 1 0-63.62 0Z" fill="#BA8591" p-id="5656"></path></svg>